<?xml version="1.0" encoding="utf-8"?><!-- Generator: Adobe Illustrator 19.1.0, SVG Export Plug-In . SVG Version: 6.00 Build 0)  --><svg version="1.1" id="Layer_1" xmlns="http://www.w3.org/2000/svg" xmlns:xlink="http://www.w3.org/1999/xlink" x="0px" y="0px"	 width="500px" height="500px" viewBox="0 0 500 500" enable-background="new 0 0 500 500" xml:space="preserve"><g>	<g>		<path d="M197.9,333.3c-2.7,0-5.3-1-7.4-3.1l-52.1-52.1c-4.1-4.1-4.1-10.7,0-14.7c4.1-4.1,10.7-4.1,14.7,0l45,45l148.9-139			c4.2-3.9,10.8-3.7,14.7,0.5c3.9,4.2,3.7,10.8-0.5,14.7L205,330.5C203,332.4,200.5,333.3,197.9,333.3z"/>	</g>	<g>		<path d="M250,500C112.2,500,0,387.9,0,250C0,112.2,112.2,0,250,0c137.9,0,250,112.2,250,250C500,387.9,387.9,500,250,500z			 M250,20.8C123.6,20.8,20.8,123.6,20.8,250S123.6,479.2,250,479.2S479.2,376.4,479.2,250S376.4,20.8,250,20.8z"/>	</g></g></svg>