<svg version="1.1" xmlns="http://www.w3.org/2000/svg" xmlns:xlink="http://www.w3.org/1999/xlink" x="0px" y="0px"	 viewBox="0 0 100 100" style="enable-background:new 0 0 100 100;" xml:space="preserve">	<path d="M21.8,63.8c-7.4-8.6-11.1-16.3-11-22.7c0.1-5.8,2.4-11.1,6.3-15.1c4-4,9.3-6.3,15.1-6.3c6.2,0,12.1,2.7,16.1,7.3		c4-4.6,9.9-7.3,16.1-7.3c5.8,0,11.1,2.3,15.1,6.3c4,4,6.3,9.3,6.3,15.1c0.1,3.5-1,7.2-2.9,11.2c-0.4,1-1.6,1.3-2.6,0.9		c-1-0.4-1.3-1.6-0.9-2.6c1.7-3.5,2.6-6.6,2.6-9.5c-0.2-9.9-7.9-17.7-17.6-17.7c-5.9,0-11.3,2.8-14.6,7.7c-0.3,0.5-1,0.9-1.5,0.9		l0,0c-0.7,0-1.2-0.3-1.5-0.9c-3.3-4.8-8.7-7.7-14.6-7.7c-9.7,0-17.5,7.7-17.6,17.7c-0.1,5.5,3.3,12.3,10,20.2		c0.7,0.8,0.5,2-0.2,2.7c-0.3,0.3-0.8,0.4-1.2,0.4C22.8,64.5,22.2,64.2,21.8,63.8L21.8,63.8z M61.5,30.9c0,1.1,0.9,2,2,2		c5.3,0,9.6,4.2,9.7,9.7c0,1.1,0.9,1.8,2,1.8l0,0c1.1,0,1.8-0.9,1.8-2c-0.1-3.6-1.5-7-4-9.5S67.1,29,63.5,29		C62.3,28.9,61.5,29.8,61.5,30.9L61.5,30.9z M84.9,63.6c0.5,2.9-2.5,5.6-9.7,8.5c-3.5,1.4-7.7,2.7-12.4,3.9		c-4.8,4.2-9.1,7.7-12.4,10.3l-0.9,0.7c-0.3,0.3-0.8,0.4-1.2,0.4c-0.4,0-0.9-0.1-1.2-0.4l-0.9-0.7c-2.2-1.7-4.9-3.9-7.8-6.4		c-3.3,0.2-6.3,0.3-8.9,0.2c-7.6-0.2-11.4-1.7-11.9-4.7c-0.2-1.1,0.5-2.1,1.5-2.2c1-0.2,2,0.4,2.2,1.4c0.4,0.4,2.7,1.5,9.5,1.6		c6,0.1,13.5-0.7,21.3-2c7.8-1.4,15.2-3.3,20.7-5.4c6.3-2.4,8-4.2,8.3-4.8c-0.1-1,0.5-2,1.5-2.1C83.7,61.8,84.7,62.6,84.9,63.6		L84.9,63.6z M55,77.7c-0.8,0.1-1.5,0.3-2.3,0.4c-3,0.5-6,1-8.9,1.3c1.6,1.4,3.2,2.6,4.6,3.7C50.3,81.6,52.6,79.8,55,77.7L55,77.7z		 M92.9,49.9c-0.2-1.4-1.2-2.6-2.9-3.5c-1-0.4-2.1-0.1-2.6,0.9c-0.4,1-0.1,2.1,0.9,2.6c0.7,0.3,0.9,0.7,0.9,0.7		c0,0.4-1.6,2.8-9.9,6.1c-7.1,2.8-16.6,5.3-26.9,7.2s-20.1,2.7-27.7,2.5c-8.8-0.2-11.2-2-11.3-2.4c0,0,0-0.5,1.3-1.5		c0.8-0.7,0.9-1.8,0.2-2.7c-0.7-0.8-1.8-0.9-2.7-0.2c-2.1,1.7-2.9,3.5-2.6,5.1c0.5,3.4,5.3,5.2,14.6,5.4c1.2,0,2.4,0.1,3.7,0		c1.4,1.4,2.9,2.8,4.5,4.2c0.3,0.3,0.9,0.5,1.3,0.5c0.5,0,1-0.2,1.4-0.7c0.8-0.8,0.7-2-0.1-2.7c-0.5-0.5-1.2-1.1-1.7-1.6		c6.1-0.3,12.9-1.2,20-2.4c6-1.1,11.6-2.4,16.8-3.8c-0.1,0.2-0.3,0.3-0.4,0.5c-0.8,0.8-0.7,2,0.1,2.7c0.8,0.8,2,0.7,2.7-0.1		c1.6-1.7,3.2-3.6,4.6-5.2c1.5-0.5,3-1.1,4.3-1.6C89.7,56.6,93.6,53.4,92.9,49.9L92.9,49.9z"/></svg>