<?xml version="1.0" encoding="utf-8"?>
<!-- Generator: Adobe Illustrator 25.0.1, SVG Export Plug-In . SVG Version: 6.00 Build 0)  -->
<svg version="1.1" id="Layer_1" xmlns="http://www.w3.org/2000/svg" xmlns:xlink="http://www.w3.org/1999/xlink" x="0px" y="0px"
	 viewBox="0 0 17.9 20.4" style="enable-background:new 0 0 17.9 20.4;" xml:space="preserve">
<style type="text/css">
	.st0{fill:#454849;}
</style>
<g>
	<path class="st0" d="M15.9,1.6h-3.3V1.1c0-0.6-0.5-1.1-1.1-1.1H5.8C5.1,0,4.5,0.5,4.5,1.1v0.4H2c-1.1,0.1-2,0.9-2,2v15
		c0,1.1,0.9,2,2,2h13.9c1.1,0,2-0.9,2-2v-15C17.9,2.4,16.9,1.6,15.9,1.6L15.9,1.6z M5.3,1.1c0-0.2,0.2-0.4,0.5-0.4h5.8
		c0.2,0,0.4,0.2,0.4,0.4v2.3c0,0.2-0.2,0.4-0.4,0.4H5.8C5.5,3.9,5.3,3.7,5.3,3.5C5.3,3.5,5.3,1.1,5.3,1.1z M17.1,18.5
		c0,0.7-0.5,1.2-1.2,1.2H2c-0.7,0-1.2-0.5-1.2-1.2v-15c0-0.7,0.5-1.2,1.2-1.2h2.6v1.2c0,0.6,0.5,1.1,1.1,1.1h5.8
		c0.6,0,1.1-0.5,1.1-1.1V2.3h3.3c0.7,0,1.2,0.5,1.2,1.2V18.5L17.1,18.5z"/>
	<path class="st0" d="M12.8,9.3l-5.1,6.3l-2.3-2c-0.2-0.2-0.4-0.2-0.5,0c-0.2,0.2-0.2,0.4,0,0.5l2.6,2.3c0.1,0.1,0.2,0.1,0.2,0.1
		l0,0c0.1,0,0.2-0.1,0.2-0.2l5.3-6.6c0.2-0.2,0.1-0.4-0.1-0.5C13.2,9.1,12.9,9.1,12.8,9.3L12.8,9.3z"/>
</g>
</svg>
